<svg class="icon" viewBox="0 0 1026 1024" xmlns="http://www.w3.org/2000/svg" width="200.391" height="200"><path d="M136.332 368.846h-33.926C45.89 368.846 0 414.692 0 471.246v102.4c0 56.575 45.849 102.4 102.406 102.4h33.918c14.657 22.458 33.016 41.837 52.942 54.291l235.868 147.418C473.097 907.731 512 886.244 512 829.744V215.148c0-56.503-38.891-77.995-86.866-48.01L189.266 314.554c-19.92 12.45-38.278 31.832-52.934 54.291zm741.955 510.201c195.61-198.854 195.911-517.825.906-717.05-9.39-11.382-23.605-18.637-39.513-18.637-28.277 0-51.2 22.923-51.2 51.2 0 13.895 5.535 26.497 14.52 35.721l-.148.149c159.959 159.958 159.959 419.303 0 579.261l.055.056c-8.159 9.07-13.123 21.07-13.123 34.23 0 28.277 22.923 51.2 51.2 51.2 13.16 0 25.16-4.965 34.23-13.124l.046.046c.409-.409.817-.818 1.224-1.228a51.52 51.52 0 0 0 1.803-1.824z"/><path d="M715.727 692.995c97.37-99.76 97.003-259.338-1.1-358.649-9.37-10.381-22.932-16.906-38.018-16.906-28.277 0-51.2 22.923-51.2 51.2 0 14.51 6.036 27.61 15.734 36.927l-.051.052c59.984 59.984 59.984 157.239 0 217.223l.232.232c-10.252 9.363-16.684 22.839-16.684 37.817 0 28.277 22.923 51.2 51.2 51.2 16.12 0 30.501-7.45 39.887-19.096z"/></svg>